<?xml version="1.0" standalone="no"?>
<!DOCTYPE svg PUBLIC "-//W3C//DTD SVG 20010904//EN"
 "http://www.w3.org/TR/2001/REC-SVG-20010904/DTD/svg10.dtd">
<svg version="1.0" xmlns="http://www.w3.org/2000/svg"
 width="700.000000pt" height="394.000000pt" viewBox="0 0 700.000000 394.000000"
 preserveAspectRatio="xMidYMid meet">
<metadata>
Created by potrace 1.16, written by Peter Selinger 2001-2019
</metadata>
<g transform="translate(0.000000,394.000000) scale(0.100000,-0.100000)"
fill="#000000" stroke="none">
<path d="M1167 2624 c-3 -3 -2 -17 4 -30 8 -24 8 -25 -25 -19 l-33 7 31 -63
c31 -63 31 -65 32 -219 l0 -155 41 -3 c41 -3 41 -3 48 36 12 70 9 236 -4 292
-8 30 -22 71 -31 90 -20 39 -53 73 -63 64z"/>
<path d="M300 2506 c-11 -11 -14 -46 -4 -46 4 0 12 7 18 15 8 12 10 1 8 -44
-3 -43 -9 -64 -23 -77 -24 -22 -24 -34 4 -81 24 -41 25 -64 17 -343 -4 -108
-1 -146 12 -191 20 -65 57 -123 81 -127 15 -3 16 0 7 24 -13 33 -8 39 18 25
38 -20 43 -11 17 33 -43 74 -58 172 -45 296 6 57 13 106 15 108 2 2 18 -12 36
-32 77 -89 177 -114 282 -71 13 5 17 2 17 -13 0 -11 6 -27 13 -34 7 -7 18 -49
25 -93 15 -103 27 -145 55 -186 27 -41 98 -79 147 -79 93 0 212 103 280 244
45 94 59 148 60 229 l0 57 -50 0 c-47 0 -50 -1 -58 -32 -7 -27 -14 -34 -43
-39 -50 -8 -75 -24 -89 -59 -16 -38 -12 -43 26 -28 33 12 84 4 84 -13 0 -6 -4
-8 -9 -4 -5 3 -13 -5 -17 -17 -4 -13 -23 -56 -42 -96 -27 -56 -39 -71 -51 -66
-88 38 -132 42 -186 20 -26 -11 -36 -12 -42 -3 -11 17 -17 228 -7 226 5 -2 21
3 36 11 34 16 73 6 103 -26 22 -24 24 -24 30 -5 15 48 -31 111 -82 111 -13 0
-37 -7 -54 -15 l-30 -16 7 28 c4 15 15 49 24 76 18 46 18 48 -1 57 -14 8 -19
22 -19 50 0 21 -4 42 -10 45 -6 4 -10 -8 -10 -29 0 -45 -35 -140 -63 -171 -16
-17 -37 -25 -77 -29 -34 -3 -45 -2 -30 3 82 26 130 73 130 127 0 37 -18 45
-41 18 -40 -48 -162 -76 -194 -44 -13 14 -11 15 25 12 40 -4 102 17 116 39 12
20 -4 20 -40 -1 -21 -11 -41 -18 -46 -15 -5 3 -24 6 -43 7 -29 1 -37 7 -61 50
-15 26 -34 48 -42 48 -8 0 -12 5 -9 10 3 6 21 10 40 10 19 0 37 -4 40 -10 10
-16 25 -12 25 8 -1 38 -56 82 -104 82 -19 0 -26 6 -31 31 -4 17 -12 32 -18 34
-32 10 -117 11 -127 1z"/>
<path d="M4961 2414 c-12 -15 -21 -35 -21 -46 0 -27 45 -68 75 -68 30 0 75 41
75 68 0 35 -38 72 -75 72 -24 0 -39 -7 -54 -26z"/>
<path d="M1650 2031 l0 -391 65 0 64 0 3 128 3 127 125 5 c134 6 166 16 223
69 89 82 102 246 27 349 -14 20 -51 50 -81 67 -54 29 -55 30 -241 33 l-188 4
0 -391z m349 255 c44 -23 65 -63 66 -128 0 -106 -58 -150 -195 -146 l-85 3 -3
143 -3 142 96 0 c64 0 105 -5 124 -14z"/>
<path d="M2307 2414 c-4 -4 -7 -180 -7 -391 l0 -383 70 0 70 0 -2 388 -3 387
-60 3 c-34 2 -64 0 -68 -4z"/>
<path d="M5840 2030 l0 -390 64 0 64 0 4 188 c3 156 6 192 21 220 36 66 143
81 196 28 l26 -26 3 -206 3 -205 67 3 67 3 -1 215 c0 198 -2 218 -21 255 -40
76 -88 105 -174 105 -66 0 -117 -22 -156 -68 l-33 -37 0 153 0 152 -65 0 -65
0 0 -390z"/>
<path d="M6507 2344 c-4 -4 -7 -36 -7 -71 l0 -63 -40 0 -40 0 0 -50 0 -50 39
0 39 0 4 -193 c3 -166 6 -197 21 -221 25 -38 74 -56 152 -56 l65 0 0 50 c0 48
-1 50 -28 50 -15 0 -38 7 -50 16 -21 15 -22 21 -22 185 l0 169 50 0 50 0 0 50
0 50 -50 0 -49 0 -3 68 -3 67 -60 3 c-34 2 -64 0 -68 -4z"/>
<path d="M2686 2205 c-63 -22 -126 -94 -126 -145 0 -18 6 -20 58 -20 53 0 58
2 74 29 36 64 160 64 193 1 8 -16 15 -42 15 -58 l0 -29 -97 -7 c-119 -8 -168
-20 -211 -52 -47 -36 -65 -78 -60 -136 15 -149 204 -207 327 -101 l41 35 0
-41 0 -41 65 0 65 0 0 215 c0 159 -4 224 -14 248 -17 43 -76 93 -123 106 -53
15 -160 13 -207 -4z m212 -343 c5 -48 -23 -91 -75 -114 -92 -41 -182 10 -153
86 13 35 45 49 130 56 96 9 94 9 98 -28z"/>
<path d="M4763 2201 c-18 -11 -40 -35 -50 -53 l-18 -33 -3 48 -3 47 -65 0 -64
0 2 -282 3 -283 67 -3 67 -3 3 201 3 202 33 29 c27 25 41 29 88 29 l55 0 -3
58 -3 57 -40 3 c-26 2 -51 -4 -72 -17z"/>
<path d="M5315 2201 c-73 -33 -117 -100 -135 -204 -23 -133 21 -264 108 -322
84 -56 208 -41 273 32 l31 36 -4 -77 c-3 -72 -6 -80 -34 -106 -59 -52 -162
-47 -213 11 -22 26 -32 29 -82 29 -30 0 -58 -3 -62 -6 -13 -13 18 -66 59 -103
51 -45 113 -65 198 -64 117 1 207 46 246 122 19 38 20 59 20 351 l0 310 -65 0
-65 0 0 -46 0 -46 -27 33 c-36 42 -96 69 -158 69 -27 0 -68 -9 -90 -19z m202
-111 c89 -54 98 -238 16 -310 -28 -25 -42 -30 -84 -30 -44 0 -55 4 -84 33 -40
40 -59 103 -52 173 10 95 62 154 137 154 19 0 49 -9 67 -20z"/>
<path d="M3100 2203 c0 -4 45 -133 99 -286 84 -236 98 -284 90 -309 -13 -48
-37 -67 -90 -74 l-49 -7 0 -48 0 -49 53 0 c99 0 162 32 207 105 16 26 240 652
240 671 0 2 -31 4 -69 4 -58 0 -71 -3 -75 -17 -3 -10 -30 -106 -61 -213 -31
-107 -60 -201 -64 -208 -4 -8 -35 81 -72 210 l-65 223 -72 3 c-40 2 -72 -1
-72 -5z"/>
<path d="M3680 2204 c0 -6 131 -496 146 -547 5 -15 15 -17 76 -15 l71 3 53
198 c29 110 55 201 57 204 6 6 5 8 62 -202 25 -93 48 -178 51 -188 5 -15 16
-17 76 -15 l71 3 73 270 c40 149 73 276 74 283 0 8 -19 12 -64 12 -62 0 -65
-1 -70 -27 -30 -145 -87 -397 -90 -401 -5 -5 -10 13 -61 218 -57 230 -45 210
-121 210 -35 0 -64 -3 -64 -6 0 -10 -100 -397 -107 -414 -3 -8 -25 71 -48 175
-23 105 -45 202 -48 218 -7 26 -10 27 -72 27 -36 0 -65 -3 -65 -6z"/>
<path d="M4950 1925 l0 -285 65 0 65 0 0 285 0 285 -65 0 -65 0 0 -285z"/>
</g>
</svg>
